PathFileType	4	(X/Y/Z)	E:\Qualisys_Data\Carbon_Farble_Plate\Data\Amateur_Runner\S14\T3\S14T3V11_c3d.trc
DataRate	CameraRate	NumFrames	NumMarkers	Units	OrigDataRate	OrigDataStartFrame	OrigNumFrames
200.000000	200.000000	4	39	mm	200.000000	78	313
Frame#	Time	LSHO			RSHO			LICST			RICST			LASIS			LHEEL			RASIS			LTROC			RTROC			SACR			LTH1			LSK4			LTH2			LTH3			RHM5			LSK2			LTH4			RTH1			LTOE			RTH2			RTH3			RTH4			LLEP			RLEP			LSK1			LSK3			RSK1			LHM5			RSK2			LFT1			RSK3			RSK4			LLME			RLME			RTOE			RHEEL			RFT1			RFT2			LFT2			
		X1	Y1	Z1	X2	Y2	Z2	X3	Y3	Z3	X4	Y4	Z4	X5	Y5	Z5	X6	Y6	Z6	X7	Y7	Z7	X8	Y8	Z8	X9	Y9	Z9	X10	Y10	Z10	X11	Y11	Z11	X12	Y12	Z12	X13	Y13	Z13	X14	Y14	Z14	X15	Y15	Z15	X16	Y16	Z16	X17	Y17	Z17	X18	Y18	Z18	X19	Y19	Z19	X20	Y20	Z20	X21	Y21	Z21	X22	Y22	Z22	X23	Y23	Z23	X24	Y24	Z24	X25	Y25	Z25	X26	Y26	Z26	X27	Y27	Z27	X28	Y28	Z28	X29	Y29	Z29	X30	Y30	Z30	X31	Y31	Z31	X32	Y32	Z32	X33	Y33	Z33	X34	Y34	Z34	X35	Y35	Z35	X36	Y36	Z36	X37	Y37	Z37	X38	Y38	Z38	X39	Y39	Z39	

79	0.39	-1178.575561523438	1456.6142578125	-529.7465209960938	-1068.802612304688	1449.490234375	-253.7629547119141	-1191.609985351562	1011.006774902344	-495.563232421875	-1135.077392578125	1013.383422851562	-228.847412109375	-1146.57958984375	959.9793090820312	-475.4686584472656	-1034.05029296875	89.8288803100586	-382.1229553222656	-1120.271606445312	965.9918212890624	-246.2048950195312	-1269.551025390625	891.9817504882812	-512.5205078125	-1280.242431640625	918.1593627929688	-174.0665435791016	-1304.209716796875	1017.857604980469	-352.2280578613281	-1122.706420898438	681.6436767578125	-517.5736694335938	-1087.394653320312	309.9882202148438	-458.1961059570312	-1188.267822265625	653.7078857421875	-482.8338012695312	-1070.981079101562	600.0863037109375	-492.2888488769531	-1723.403198242188	175.1055603027344	-176.5490875244141	-1107.476684570312	406.7935180664062	-474.7114562988281	-1142.22021484375	568.5772094726562	-466.812255859375	-1249.039428710938	672.9476928710938	-188.9386291503906	-795.9008178710938	184.3223876953125	-441.4804382324219	-1318.380859375	706.7227172851562	-178.1257476806641	-1290.716064453125	583.4711303710938	-210.7623443603516	-1366.439697265625	619.546630859375	-195.8417510986328	-1084.155029296875	511.8763732910156	-481.8298645019531	-1380.614624023438	546.6773681640625	-200.8033447265625	-1026.947387695312	422.4537658691406	-481.3355407714844	-1008.232360839844	323.6682739257812	-470.0646362304688	-1462.067749023438	451.3629760742188	-194.0182342529297	-860.4837646484375	137.8830261230469	-492.6995239257812	-1516.967163085938	517.29296875	-196.9789581298828	-1009.337890625	69.83316802978516	-358.9826049804688	-1545.003051757812	389.8712768554688	-201.6890258789062	-1589.990234375	454.6480102539062	-206.4259643554688	-999.7324829101562	138.3712463378906	-446.3472290039062	-1706.287963867188	319.6029357910156	-220.9821014404297	-1681.499877929688	105.4641494750977	-232.8995513916016	-1744.15869140625	353.0057067871094	-280.5813903808594	-1765.19384765625	329.2825622558594	-309.486083984375	-1770.367553710938	349.6849060058594	-260.2353515625	-1024.25830078125	61.37675857543945	-410.5962524414062
80	0.395	-1162.115844726562	1454.176879882812	-531.0982055664062	-1051.658081054688	1447.796264648438	-255.0954132080078	-1174.78955078125	1008.621337890625	-496.4144592285156	-1118.293701171875	1012.237976074219	-229.1298828125	-1129.521118164062	957.43310546875	-476.0989990234375	-1014.523132324219	87.82145690917969	-381.7662963867188	-1103.244018554688	964.55712890625	-246.7886505126953	-1252.939575195312	888.9068603515625	-512.7249755859375	-1262.102416992188	915.983642578125	-174.1144256591797	-1287.570556640625	1015.976257324219	-352.8790588378906	-1107.36865234375	678.045166015625	-520.6653442382812	-1069.369873046875	307.4387817382812	-458.3931884765625	-1172.1328125	651.255615234375	-482.7639770507812	-1055.019775390625	597.0291748046875	-493.5385437011719	-1708.955078125	180.9192352294922	-175.8708801269531	-1090.839721679688	403.8599548339844	-474.7437438964844	-1125.552978515625	566.1527099609375	-466.9677124023438	-1230.296508789062	670.5617065429688	-190.2631378173828	-777.4052124023438	184.6960296630859	-442.9465942382812	-1299.846313476562	704.8922729492188	-177.5704040527344	-1271.397216796875	581.1128540039062	-211.0842437744141	-1346.628173828125	616.6128540039062	-196.2958526611328	-1067.625732421875	509.4213256835938	-481.9678649902344	-1360.521484375	544.216796875	-200.5638427734375	-1009.612182617188	420.3472900390625	-481.5733642578125	-990.2880859375	321.9322204589844	-470.0536804199219	-1444.904663085938	450.9409790039062	-194.838134765625	-841.7550659179688	137.5332641601562	-493.5956726074219	-1498.4365234375	517.5075073242188	-197.6074523925781	-989.452880859375	67.3211669921875	-359.0591735839844	-1528.87255859375	391.4293823242188	-202.2349853515625	-1573.005859375	457.0263366699219	-207.7709350585938	-980.8701782226562	136.5396423339844	-446.1020812988281	-1691.588256835938	324.817626953125	-222.3597869873047	-1668.198364257812	110.7655563354492	-231.6807403564453	-1730.077392578125	356.8451232910156	-282.0423889160156	-1751.452392578125	333.7404174804688	-310.5941467285156	-1756.179931640625	354.6670532226562	-261.9626159667969	-1004.532775878906	59.6718635559082	-410.4415283203125
81	0.4	-1144.9345703125	1451.12646484375	-532.51416015625	-1034.5478515625	1445.748046875	-256.3801574707031	-1158.015747070312	1005.557250976562	-496.9866333007812	-1101.69384765625	1010.326354980469	-230.08154296875	-1112.5322265625	954.698486328125	-476.8443603515625	-996.4583740234376	85.27986145019531	-381.614990234375	-1086.420532226562	962.6217651367188	-247.4046478271484	-1236.340576171875	884.9573364257812	-512.2859497070312	-1244.850463867188	913.7261962890624	-174.7482299804688	-1270.934448242188	1013.357055664062	-353.5936584472656	-1092.530883789062	674.8260498046875	-523.517578125	-1051.231079101562	305.5594787597656	-458.734130859375	-1155.58447265625	648.8158569335938	-483.2799987792969	-1038.363891601562	594.6460571289062	-494.8814697265625	-1695.335815429688	186.0093536376953	-175.3998260498047	-1072.597534179688	401.7262878417969	-474.8787231445312	-1109.2197265625	564.3111572265625	-467.0068359375	-1211.19970703125	667.9729614257812	-191.3929138183594	-760.40185546875	183.7811126708984	-444.2509460449219	-1281.285034179688	701.9468994140625	-178.5613861083984	-1252.081787109375	578.366943359375	-211.6954193115234	-1327.687622070312	613.5733032226562	-196.5469665527344	-1050.7998046875	507.3107604980469	-482.5191650390625	-1340.917358398438	541.0173950195312	-200.8053741455078	-992.2523803710938	418.6031188964844	-481.8372192382812	-972.4562377929688	319.9493713378906	-470.3120727539062	-1427.371215820312	449.7164001464844	-195.2133331298828	-824.7919311523438	136.2177276611328	-493.8601989746094	-1478.998291015625	517.8184814453125	-198.2506103515625	-971.0191040039062	65.24478912353516	-358.6755981445312	-1512.062622070312	392.0735168457031	-202.9898529052734	-1554.94873046875	458.271484375	-208.5815887451172	-963.1471557617188	134.1957855224609	-446.0682983398438	-1676.957763671875	329.7772216796875	-223.4203948974609	-1654.39208984375	115.2902069091797	-230.661376953125	-1715.801147460938	362.7225036621094	-283.705810546875	-1736.516235351562	338.0515441894531	-310.8798828125	-1740.52099609375	359.3967590332031	-262.7271118164062	-986.4144287109376	57.25523376464844	-410.0872497558594
82	0.405	-1128.491088867188	1448.239379882812	-534.3573608398438	-1017.832641601562	1443.507690429688	-257.5848999023438	-1141.406127929688	1002.651489257812	-497.6312561035156	-1084.799438476562	1008.2255859375	-230.9370727539062	-1095.405151367188	951.9146118164062	-477.1611938476562	-979.2337036132812	82.37798309326172	-381.1674499511719	-1069.326049804688	960.9203491210938	-247.8064422607422	-1220.164428710938	881.6154174804688	-512.6098022460938	-1226.701904296875	911.0175170898438	-174.7336273193359	-1254.388427734375	1010.606262207031	-354.7609558105469	-1077.10546875	671.767822265625	-525.6068725585938	-1034.774291992188	302.68115234375	-458.6963195800781	-1139.653076171875	646.3113403320312	-483.2216491699219	-1022.122985839844	592.818359375	-495.3233947753906	-1680.52978515625	192.0995330810547	-175.0520782470703	-1055.494262695312	399.1153869628906	-475.2396240234375	-1092.242431640625	562.2637329101562	-467.2616882324219	-1191.94970703125	665.1951904296875	-192.3559722900391	-743.9421997070312	182.1687774658203	-445.0689392089844	-1262.218994140625	698.3484497070312	-178.8968658447266	-1232.420776367188	575.0908813476562	-212.5784606933594	-1308.308227539062	610.1399536132812	-196.5230865478516	-1034.085693359375	505.0087585449219	-482.5436096191406	-1321.23486328125	537.6062622070312	-201.4519348144531	-975.3641357421876	415.8561706542969	-481.889404296875	-955.7091064453124	317.4255065917969	-470.1600646972656	-1409.983764648438	447.7388610839844	-196.1628112792969	-808.7112426757812	134.4333648681641	-495.0322570800781	-1459.572509765625	517.2084350585938	-199.4664764404297	-953.86767578125	62.7036018371582	-358.9658203125	-1496.008911132812	392.0304870605469	-204.1206665039062	-1536.750732421875	459.5909118652344	-209.6512603759766	-946.5579223632812	132.1547546386719	-445.9927062988281	-1661.147216796875	333.9714660644531	-223.6923675537109	-1641.420776367188	119.9281463623047	-229.812744140625	-1698.148681640625	367.7525634765625	-282.1483154296875	-1721.168823242188	342.2682495117188	-311.5079650878906	-1723.531982421875	364.8219604492188	-262.2036743164062	-969.3762817382812	54.11443328857422	-409.4606628417969
